<svg xmlns="http://www.w3.org/2000/svg" xmlns:svg="http://www.w3.org/2000/svg" id="svg2" width="548.553" height="874.445" version="1.1" viewBox="0 0 514.268 819.793"><defs id="defs4"><linearGradient id="b" x1="84.315" x2="527.72" y1="771.51" y2="771.51" gradientUnits="userSpaceOnUse"><stop id="stop3371" offset="0" stop-color="#4a9ea1"/></linearGradient><linearGradient id="a" x1="99.675" x2="512.36" y1="771.48" y2="771.48" gradientUnits="userSpaceOnUse"><stop id="stop3374" offset="0" stop-color="#63d3d7"/></linearGradient></defs><metadata id="metadata7"/><g id="layer1" transform="translate(-102.69347,-186.61175)"><g id="g3398" transform="translate(103.82858,458.97126)" style="enable-background:new"><g id="g3376" transform="translate(-50.017,-515.51)"><path style="fill:url(#b)" id="path3378" d="m 84.315,899.51 221.7,128 221.7,-128 0,-256 -221.7,-127.99 -221.7,128 z"/><path style="fill:url(#a)" id="path3380" d="m 283.13,546.35 -160.74,92.806 c 0.32126,2.8543 0.32125,5.7352 0,8.5894 l 160.75,92.806 c 13.554,-10.001 32.043,-10.001 45.597,0 l 160.75,-92.807 c -0.32126,-2.8543 -0.32293,-5.7338 -0.001,-8.588 l -160.74,-92.806 c -13.554,10.001 -32.044,10.001 -45.599,0 z M 504.92,673.38 344,767.22 c 1.884,16.739 -7.3611,32.751 -22.799,39.489 l 0.18062,184.58 c 2.6325,1.1489 5.1267,2.5886 7.438,4.294 l 160.75,-92.805 c -1.884,-16.739 7.3611,-32.752 22.799,-39.49 l 0,-185.61 c -2.6325,-1.1489 -5.1281,-2.5886 -7.4394,-4.294 z m -397.81,1.0315 c -2.3112,1.7054 -4.8054,3.1465 -7.438,4.2954 l 0,185.61 c 15.438,6.7378 24.683,22.75 22.799,39.489 l 160.74,92.806 c 2.3112,-1.7054 4.8069,-3.1465 7.4394,-4.2954 l 0,-185.61 c -15.438,-6.7378 -24.683,-22.75 -22.799,-39.489 l -160.74,-92.81 z"/></g><g id="g3382" transform="translate(0,-196.66)"><path style="fill-opacity:.25097997" id="path3384" d="m 256,708.66 221.7,-128 0,-256 -221.7,128 0,256 z"/><path style="fill-opacity:.03921599" id="path3386" d="m 256,708.66 0,-256 -221.7,-128 0,256 221.7,128 z"/><path style="fill-opacity:.13018003" id="path3388" d="m 34.298,324.66 221.7,128 221.7,-128 -221.7,-128 -221.7,128 z"/></g></g><g id="g3466" transform="matrix(1.823199,0,0,1.823199,-1390.4435,-183.19984)"><polygon id="polygon3468" points="959.9 220.9 838.4 422.5 959.9 367.3" style="fill:#8a92b2"/><polygon id="polygon3470" points="959.9 367.3 838.4 422.5 959.9 494.4" style="fill:#62688f"/><polygon id="polygon3472" points="1081.4 422.5 959.9 220.9 959.9 367.3" style="fill:#62688f"/><polygon id="polygon3474" points="959.9 494.4 1081.4 422.5 959.9 367.3" style="fill:#454a75"/><polygon id="polygon3476" points="838.4 445.6 959.9 616.8 959.9 517.4" style="fill:#8a92b2"/><polygon id="polygon3478" points="960 517.4 960 616.8 1081.6 445.6" style="fill:#62688f"/></g></g></svg>